<svg width="375" height="297" viewBox="0 0 375 297" fill="none" xmlns="http://www.w3.org/2000/svg">
<path d="M21.9725 250.282C20.8542 250.282 19.8458 250.026 18.9475 249.512C18.0492 248.981 17.3342 248.266 16.8025 247.367C16.2708 246.451 16.005 245.442 16.005 244.342C16.005 243.242 16.2708 242.243 16.8025 241.345C17.3342 240.447 18.0492 239.732 18.9475 239.2C19.8458 238.668 20.8542 238.402 21.9725 238.402C23.0725 238.402 24.0717 238.668 24.97 239.2C25.8683 239.732 26.5833 240.447 27.115 241.345C27.6467 242.243 27.9125 243.242 27.9125 244.342C27.9125 245.442 27.6467 246.451 27.115 247.367C26.5833 248.266 25.8683 248.981 24.97 249.512C24.0717 250.026 23.0725 250.282 21.9725 250.282ZM2.31 286.858C2.31 285.684 2.73167 284.749 3.575 284.053C4.43667 283.374 5.40833 283.035 6.49 283.035C7.35167 283.035 8.18583 283.283 8.9925 283.778C9.8175 284.273 10.5142 285.024 11.0825 286.033C11.2842 286.766 11.66 287.307 12.21 287.655C12.76 288.003 13.4017 288.178 14.135 288.178C14.8683 288.178 15.5008 288.003 16.0325 287.655C16.5642 287.307 16.9675 286.748 17.2425 285.978C17.5358 285.226 17.6825 284.245 17.6825 283.035V261.2H12.0175C10.3858 261.2 9.13917 260.925 8.2775 260.375C7.41583 259.825 6.985 259.037 6.985 258.01C6.985 256.965 7.41583 256.177 8.2775 255.645C9.13917 255.095 10.3858 254.82 12.0175 254.82H22.165C25.19 254.82 26.7025 256.479 26.7025 259.797V281.138C26.7025 283.796 26.3358 286.005 25.6025 287.765C24.8692 289.525 23.8975 290.9 22.6875 291.89C21.4775 292.898 20.1208 293.613 18.6175 294.035C17.1325 294.457 15.6383 294.668 14.135 294.668C12.76 294.668 11.3758 294.493 9.9825 294.145C8.58917 293.797 7.30583 293.283 6.1325 292.605C4.9775 291.945 4.05167 291.129 3.355 290.158C2.65833 289.204 2.31 288.104 2.31 286.858ZM42.8527 274.592H47.2802V261.2H44.5852C42.9352 261.2 41.6794 260.925 40.8177 260.375C39.9744 259.825 39.5527 259.037 39.5527 258.01C39.5527 256.965 39.9744 256.177 40.8177 255.645C41.6794 255.095 42.9352 254.82 44.5852 254.82H51.1302C54.5036 254.82 56.1902 256.507 56.1902 259.88V274.592H60.0127C61.5527 274.592 62.7077 274.877 63.4777 275.445C64.2477 275.995 64.6327 276.783 64.6327 277.81C64.6327 278.837 64.2477 279.625 63.4777 280.175C62.7077 280.725 61.5527 281 60.0127 281H42.8527C41.3494 281 40.2036 280.725 39.4152 280.175C38.6452 279.625 38.2602 278.837 38.2602 277.81C38.2602 276.783 38.6452 275.995 39.4152 275.445C40.2036 274.877 41.3494 274.592 42.8527 274.592ZM45.5202 244.342C45.5202 243.242 45.7861 242.243 46.3177 241.345C46.8494 240.447 47.5644 239.732 48.4627 239.2C49.3794 238.668 50.3877 238.402 51.4877 238.402C52.6061 238.402 53.6144 238.668 54.5127 239.2C55.4111 239.732 56.1169 240.447 56.6302 241.345C57.1619 242.243 57.4277 243.242 57.4277 244.342C57.4277 245.442 57.1619 246.451 56.6302 247.367C56.1169 248.266 55.4111 248.981 54.5127 249.512C53.6144 250.026 52.6061 250.282 51.4877 250.282C50.3877 250.282 49.3794 250.026 48.4627 249.512C47.5644 248.981 46.8494 248.266 46.3177 247.367C45.7861 246.451 45.5202 245.442 45.5202 244.342ZM85.513 274.84H88.0155C89.3721 274.84 90.3346 275.133 90.903 275.72C91.4896 276.288 91.783 277.022 91.783 277.92C91.783 278.8 91.4805 279.533 90.8755 280.12C90.2888 280.707 89.3355 281 88.0155 281H76.273C74.8613 281 73.8438 280.707 73.2205 280.12C72.5971 279.533 72.2855 278.8 72.2855 277.92C72.2855 277.022 72.5696 276.288 73.138 275.72C73.7063 275.133 74.5496 274.84 75.668 274.84H77.593V260.98H75.723C74.5496 260.98 73.6513 260.705 73.028 260.155C72.4046 259.587 72.093 258.835 72.093 257.9C72.093 256.91 72.5238 256.149 73.3855 255.617C74.2471 255.086 75.4938 254.82 77.1255 254.82H79.6005C80.6821 254.82 81.6721 255.077 82.5705 255.59C83.4688 256.103 84.1655 256.809 84.6605 257.707L84.853 258.615C86.063 257.295 87.5113 256.232 89.198 255.425C90.903 254.6 92.6446 254.187 94.423 254.187C95.8346 254.187 97.0813 254.499 98.163 255.122C99.263 255.727 99.813 256.791 99.813 258.312C99.813 259.742 99.4371 260.842 98.6855 261.612C97.9338 262.382 96.9255 262.767 95.6605 262.767C94.8905 262.767 94.2488 262.712 93.7355 262.602C93.2221 262.474 92.7271 262.318 92.2505 262.135C91.8838 262.007 91.508 261.906 91.123 261.832C90.7563 261.759 90.3713 261.722 89.968 261.722C89.1063 261.722 88.3363 261.97 87.658 262.465C86.998 262.96 86.4755 263.62 86.0905 264.445C85.7055 265.252 85.513 266.15 85.513 267.14V274.84ZM127.898 281.055C126.432 281.055 125.332 280.762 124.598 280.175C123.865 279.57 123.471 278.763 123.416 277.755L123.388 277.37C123.132 277.957 122.655 278.571 121.958 279.212C121.28 279.836 120.382 280.367 119.263 280.807C118.163 281.248 116.825 281.468 115.248 281.468C113.305 281.468 111.563 281.128 110.023 280.45C108.483 279.753 107.264 278.754 106.366 277.452C105.486 276.132 105.046 274.537 105.046 272.667C105.046 270.706 105.577 269.102 106.641 267.855C107.722 266.608 109.125 265.682 110.848 265.077C112.572 264.472 114.414 264.17 116.376 264.17C117.549 264.17 118.594 264.28 119.511 264.5C120.427 264.72 121.179 264.986 121.766 265.297C122.371 265.591 122.774 265.838 122.976 266.04V263.95C122.976 263.473 122.838 263.033 122.563 262.63C122.288 262.227 121.903 261.878 121.408 261.585C120.932 261.273 120.372 261.035 119.731 260.87C119.089 260.705 118.402 260.622 117.668 260.622C116.605 260.622 115.606 260.714 114.671 260.897C113.754 261.062 112.929 261.264 112.196 261.502C111.792 261.631 111.398 261.732 111.013 261.805C110.647 261.86 110.243 261.887 109.803 261.887C108.777 261.887 107.952 261.649 107.328 261.172C106.723 260.677 106.421 259.907 106.421 258.862C106.421 257.909 106.732 257.185 107.356 256.69C107.997 256.177 108.74 255.773 109.583 255.48C110.518 255.132 111.774 254.829 113.351 254.572C114.946 254.316 116.678 254.187 118.548 254.187C120.217 254.187 121.812 254.38 123.333 254.765C124.855 255.15 126.202 255.718 127.376 256.47C128.549 257.203 129.475 258.12 130.153 259.22C130.832 260.302 131.171 261.548 131.171 262.96V274.84H131.858C132.922 274.84 133.728 275.115 134.278 275.665C134.828 276.197 135.103 276.939 135.103 277.892C135.103 278.864 134.764 279.634 134.086 280.202C133.407 280.771 132.252 281.055 130.621 281.055H127.898ZM122.976 271.1C122.792 270.825 122.435 270.541 121.903 270.247C121.372 269.954 120.748 269.716 120.033 269.532C119.337 269.331 118.612 269.23 117.861 269.23C116.559 269.23 115.468 269.468 114.588 269.945C113.727 270.422 113.296 271.247 113.296 272.42C113.296 273.208 113.479 273.841 113.846 274.317C114.212 274.794 114.707 275.142 115.331 275.362C115.972 275.564 116.687 275.665 117.476 275.665C118.411 275.665 119.254 275.472 120.006 275.087C120.776 274.684 121.417 274.226 121.931 273.712C122.444 273.181 122.792 272.713 122.976 272.31V271.1ZM154.416 281.523C152.693 281.523 150.969 281.275 149.246 280.78C147.523 280.267 145.946 279.469 144.516 278.387C143.086 277.306 141.94 275.894 141.078 274.152C140.217 272.411 139.786 270.312 139.786 267.855C139.786 265.398 140.217 263.299 141.078 261.557C141.94 259.816 143.086 258.404 144.516 257.322C145.946 256.241 147.523 255.452 149.246 254.957C150.969 254.444 152.693 254.187 154.416 254.187C156.011 254.187 157.496 254.389 158.871 254.792C160.264 255.196 161.483 255.737 162.528 256.415C163.372 256.873 163.986 257.432 164.371 258.092C164.774 258.734 164.976 259.367 164.976 259.99C164.976 261.053 164.591 261.924 163.821 262.602C163.051 263.281 162.153 263.62 161.126 263.62C160.356 263.62 159.705 263.501 159.173 263.262C158.66 263.006 158.211 262.667 157.826 262.245C157.423 261.768 156.937 261.374 156.368 261.062C155.818 260.732 155.158 260.567 154.388 260.567C153.673 260.567 152.986 260.714 152.326 261.007C151.666 261.301 151.079 261.75 150.566 262.355C150.071 262.942 149.668 263.693 149.356 264.61C149.063 265.527 148.916 266.608 148.916 267.855C148.916 269.102 149.063 270.183 149.356 271.1C149.668 272.017 150.071 272.768 150.566 273.355C151.079 273.942 151.666 274.382 152.326 274.675C152.986 274.968 153.673 275.115 154.388 275.115C155.158 275.115 155.818 274.959 156.368 274.647C156.937 274.317 157.423 273.923 157.826 273.465C158.229 273.043 158.688 272.704 159.201 272.447C159.714 272.191 160.356 272.062 161.126 272.062C162.153 272.062 163.051 272.402 163.821 273.08C164.591 273.758 164.976 274.638 164.976 275.72C164.976 276.343 164.774 276.976 164.371 277.617C163.986 278.241 163.372 278.791 162.528 279.267C161.483 279.964 160.264 280.514 158.871 280.917C157.496 281.321 156.011 281.523 154.416 281.523ZM195.811 281.275C192.786 281.275 191.274 279.579 191.274 276.187V266.92C191.274 264.848 190.971 263.308 190.366 262.3C189.78 261.273 188.808 260.76 187.451 260.76C186.828 260.76 186.25 260.897 185.719 261.172C185.205 261.447 184.756 261.832 184.371 262.327C184.005 262.822 183.711 263.4 183.491 264.06C183.29 264.702 183.189 265.407 183.189 266.177V276.187C183.189 279.579 181.685 281.275 178.679 281.275C177.23 281.275 176.112 280.844 175.324 279.982C174.554 279.102 174.169 277.837 174.169 276.187V244.15C174.169 242.518 174.554 241.272 175.324 240.41C176.112 239.53 177.23 239.09 178.679 239.09C181.685 239.09 183.189 240.777 183.189 244.15V257.597C184.032 256.607 185.068 255.801 186.296 255.177C187.525 254.554 188.9 254.242 190.421 254.242C192.31 254.242 193.996 254.6 195.481 255.315C196.985 256.012 198.158 257.194 199.001 258.862C199.863 260.512 200.294 262.758 200.294 265.6V276.187C200.294 279.579 198.8 281.275 195.811 281.275ZM230.056 281.055C228.59 281.055 227.49 280.762 226.756 280.175C226.023 279.57 225.629 278.763 225.574 277.755L225.546 277.37C225.29 277.957 224.813 278.571 224.116 279.212C223.438 279.836 222.54 280.367 221.421 280.807C220.321 281.248 218.983 281.468 217.406 281.468C215.463 281.468 213.721 281.128 212.181 280.45C210.641 279.753 209.422 278.754 208.524 277.452C207.644 276.132 207.204 274.537 207.204 272.667C207.204 270.706 207.736 269.102 208.799 267.855C209.881 266.608 211.283 265.682 213.006 265.077C214.73 264.472 216.572 264.17 218.534 264.17C219.707 264.17 220.752 264.28 221.669 264.5C222.586 264.72 223.337 264.986 223.924 265.297C224.529 265.591 224.932 265.838 225.134 266.04V263.95C225.134 263.473 224.996 263.033 224.721 262.63C224.446 262.227 224.061 261.878 223.566 261.585C223.09 261.273 222.531 261.035 221.889 260.87C221.247 260.705 220.56 260.622 219.826 260.622C218.763 260.622 217.764 260.714 216.829 260.897C215.912 261.062 215.087 261.264 214.354 261.502C213.951 261.631 213.556 261.732 213.171 261.805C212.805 261.86 212.401 261.887 211.961 261.887C210.935 261.887 210.11 261.649 209.486 261.172C208.881 260.677 208.579 259.907 208.579 258.862C208.579 257.909 208.891 257.185 209.514 256.69C210.156 256.177 210.898 255.773 211.741 255.48C212.676 255.132 213.932 254.829 215.509 254.572C217.104 254.316 218.836 254.187 220.706 254.187C222.375 254.187 223.97 254.38 225.491 254.765C227.013 255.15 228.361 255.718 229.534 256.47C230.707 257.203 231.633 258.12 232.311 259.22C232.99 260.302 233.329 261.548 233.329 262.96V274.84H234.016C235.08 274.84 235.886 275.115 236.436 275.665C236.986 276.197 237.261 276.939 237.261 277.892C237.261 278.864 236.922 279.634 236.244 280.202C235.566 280.771 234.411 281.055 232.779 281.055H230.056ZM225.134 271.1C224.951 270.825 224.593 270.541 224.061 270.247C223.53 269.954 222.906 269.716 222.191 269.532C221.495 269.331 220.771 269.23 220.019 269.23C218.717 269.23 217.626 269.468 216.746 269.945C215.885 270.422 215.454 271.247 215.454 272.42C215.454 273.208 215.637 273.841 216.004 274.317C216.371 274.794 216.866 275.142 217.489 275.362C218.131 275.564 218.846 275.665 219.634 275.665C220.569 275.665 221.412 275.472 222.164 275.087C222.934 274.684 223.576 274.226 224.089 273.712C224.602 273.181 224.951 272.713 225.134 272.31V271.1ZM247.169 274.592H251.597V261.2H248.902C247.252 261.2 245.996 260.925 245.134 260.375C244.291 259.825 243.869 259.037 243.869 258.01C243.869 256.965 244.291 256.177 245.134 255.645C245.996 255.095 247.252 254.82 248.902 254.82H255.447C258.82 254.82 260.507 256.507 260.507 259.88V274.592H264.329C265.869 274.592 267.024 274.877 267.794 275.445C268.564 275.995 268.949 276.783 268.949 277.81C268.949 278.837 268.564 279.625 267.794 280.175C267.024 280.725 265.869 281 264.329 281H247.169C245.666 281 244.52 280.725 243.732 280.175C242.962 279.625 242.577 278.837 242.577 277.81C242.577 276.783 242.962 275.995 243.732 275.445C244.52 274.877 245.666 274.592 247.169 274.592ZM249.837 244.342C249.837 243.242 250.102 242.243 250.634 241.345C251.166 240.447 251.881 239.732 252.779 239.2C253.696 238.668 254.704 238.402 255.804 238.402C256.922 238.402 257.931 238.668 258.829 239.2C259.727 239.732 260.433 240.447 260.947 241.345C261.478 242.243 261.744 243.242 261.744 244.342C261.744 245.442 261.478 246.451 260.947 247.367C260.433 248.266 259.727 248.981 258.829 249.512C257.931 250.026 256.922 250.282 255.804 250.282C254.704 250.282 253.696 250.026 252.779 249.512C251.881 248.981 251.166 248.266 250.634 247.367C250.102 246.451 249.837 245.442 249.837 244.342Z" fill="#363636"/>
<path d="M287.932 282.21C286.704 282.21 285.585 281.908 284.577 281.303C283.569 280.716 282.762 279.918 282.157 278.91C281.57 277.883 281.277 276.765 281.277 275.555C281.277 274.308 281.57 273.181 282.157 272.172C282.762 271.164 283.569 270.367 284.577 269.78C285.585 269.193 286.704 268.9 287.932 268.9C289.16 268.9 290.269 269.193 291.259 269.78C292.268 270.367 293.065 271.164 293.652 272.172C294.257 273.181 294.559 274.308 294.559 275.555C294.559 276.765 294.257 277.883 293.652 278.91C293.065 279.918 292.268 280.716 291.259 281.303C290.269 281.908 289.16 282.21 287.932 282.21ZM323.745 281.523C322.663 281.523 321.783 281.202 321.105 280.56C320.426 279.918 320.087 278.782 320.087 277.15V266.205C320.087 264.867 320.014 263.858 319.867 263.18C319.739 262.502 319.546 262.043 319.29 261.805C319.051 261.567 318.767 261.447 318.437 261.447C318.07 261.447 317.74 261.585 317.447 261.86C317.154 262.135 316.915 262.602 316.732 263.262C316.567 263.904 316.485 264.793 316.485 265.93V276.49C316.485 279.845 315.091 281.523 312.305 281.523C309.518 281.523 308.125 279.845 308.125 276.49V259.385C308.125 256.012 309.518 254.325 312.305 254.325C313.478 254.325 314.404 254.664 315.082 255.342C315.779 256.002 316.219 256.947 316.402 258.175V258.34C316.989 257.185 317.795 256.213 318.822 255.425C319.867 254.637 321.05 254.242 322.37 254.242C323.873 254.242 324.991 254.627 325.725 255.397C326.458 256.149 326.935 257.322 327.155 258.917C327.833 257.579 328.704 256.47 329.767 255.59C330.83 254.692 332.05 254.242 333.425 254.242C335.313 254.242 336.688 254.857 337.55 256.085C338.43 257.295 338.87 259.211 338.87 261.832V276.49C338.87 279.845 337.559 281.523 334.937 281.523C332.315 281.523 331.005 279.845 331.005 276.49V266.205C331.005 264.867 330.931 263.858 330.785 263.18C330.656 262.502 330.464 262.043 330.207 261.805C329.969 261.567 329.675 261.447 329.327 261.447C328.979 261.447 328.658 261.603 328.365 261.915C328.071 262.208 327.833 262.694 327.65 263.372C327.485 264.032 327.402 264.931 327.402 266.067V277.15C327.402 278.782 327.063 279.918 326.385 280.56C325.725 281.202 324.845 281.523 323.745 281.523ZM357.495 281.578C355.038 281.578 352.765 281.055 350.675 280.01C348.585 278.947 346.907 277.397 345.642 275.362C344.396 273.309 343.772 270.807 343.772 267.855C343.772 265.637 344.13 263.684 344.845 261.997C345.56 260.292 346.55 258.862 347.815 257.707C349.08 256.552 350.547 255.682 352.215 255.095C353.883 254.49 355.671 254.187 357.577 254.187C360.126 254.187 362.381 254.673 364.342 255.645C366.304 256.598 367.844 257.937 368.962 259.66C370.081 261.365 370.64 263.336 370.64 265.572C370.64 267.039 370.292 268.075 369.595 268.68C368.917 269.285 367.826 269.587 366.322 269.587H352.49C352.655 270.779 352.985 271.787 353.48 272.612C353.993 273.437 354.653 274.07 355.46 274.51C356.267 274.95 357.165 275.17 358.155 275.17C359.457 275.17 360.502 274.996 361.29 274.647C362.078 274.299 362.793 273.905 363.435 273.465C364.058 273.08 364.682 272.759 365.305 272.502C365.928 272.227 366.597 272.09 367.312 272.09C368.229 272.09 368.99 272.347 369.595 272.86C370.2 273.373 370.502 274.125 370.502 275.115C370.502 276.032 370.264 276.774 369.787 277.342C369.311 277.892 368.715 278.415 368 278.91C366.9 279.717 365.442 280.367 363.627 280.862C361.812 281.339 359.768 281.578 357.495 281.578ZM352.71 264.775H362.692C362.491 263.363 361.968 262.236 361.125 261.392C360.3 260.531 359.182 260.1 357.77 260.1C356.982 260.1 356.248 260.283 355.57 260.65C354.892 260.998 354.305 261.521 353.81 262.217C353.333 262.896 352.967 263.748 352.71 264.775Z" fill="#00F0B6"/>
<g filter="url(#filter0_d_25_3)">
<path d="M179.25 89.3484C191.25 96.2766 191.25 113.597 179.25 120.525L92.2921 170.731C79.7991 177.943 65.5061 164.647 71.7988 151.666C73.0706 149.043 75.0967 146.859 77.6177 145.394L120.443 120.512C132.39 113.57 132.385 96.3128 120.433 89.3788L58.2944 53.3289C53.7791 50.7094 51 45.884 51 40.6639C51 29.3924 63.2017 22.3478 72.9631 27.9835L179.25 89.3484Z" fill="url(#paint0_linear_25_3)"/>
<path d="M51.5 40.6641C51.5 29.7775 63.2848 22.9737 72.7129 28.417L179 89.7812C190.667 96.517 190.667 113.357 179 120.093L92.042 170.298C79.9757 177.264 66.1713 164.421 72.249 151.884C73.4774 149.35 75.4345 147.241 77.8691 145.826L120.694 120.944C132.973 113.81 132.967 96.0728 120.684 88.9463L58.5449 52.8965C54.184 50.3664 51.5001 45.7058 51.5 40.6641Z" stroke="url(#paint1_radial_25_3)" stroke-opacity="0.21"/>
</g>
<g filter="url(#filter1_d_25_3)">
<path d="M43 21.5C43 27.299 38.299 32 32.5 32C26.701 32 22 27.299 22 21.5C22 15.701 26.701 11 32.5 11C38.299 11 43 15.701 43 21.5Z" fill="url(#paint2_linear_25_3)" fill-opacity="0.8"/>
<path d="M32.5 11.5C38.0228 11.5 42.5 15.9772 42.5 21.5C42.5 27.0228 38.0228 31.5 32.5 31.5C26.9772 31.5 22.5 27.0228 22.5 21.5C22.5 15.9772 26.9772 11.5 32.5 11.5Z" stroke="url(#paint3_radial_25_3)" stroke-opacity="0.21"/>
</g>
<rect x="291.155" y="0.681158" width="40.5507" height="208.552" rx="20.2753" transform="rotate(29.43 291.155 0.681158)" fill="#00F0B6" fill-opacity="0.46"/>
<rect x="291.155" y="0.681158" width="40.5507" height="208.552" rx="20.2753" transform="rotate(29.43 291.155 0.681158)" stroke="url(#paint4_linear_25_3)"/>
<defs>
<filter id="filter0_d_25_3" x="51" y="26" width="141.25" height="150.765" filterUnits="userSpaceOnUse" color-interpolation-filters="sRGB">
<feFlood flood-opacity="0" result="BackgroundImageFix"/>
<feColorMatrix in="SourceAlpha" type="matrix" values="0 0 0 0 0 0 0 0 0 0 0 0 0 0 0 0 0 0 127 0" result="hardAlpha"/>
<feOffset dx="2" dy="2"/>
<feGaussianBlur stdDeviation="1"/>
<feComposite in2="hardAlpha" operator="out"/>
<feColorMatrix type="matrix" values="0 0 0 0 0 0 0 0 0 0 0 0 0 0 0 0 0 0 0.25 0"/>
<feBlend mode="normal" in2="BackgroundImageFix" result="effect1_dropShadow_25_3"/>
<feBlend mode="normal" in="SourceGraphic" in2="effect1_dropShadow_25_3" result="shape"/>
</filter>
<filter id="filter1_d_25_3" x="22" y="11" width="25" height="25" filterUnits="userSpaceOnUse" color-interpolation-filters="sRGB">
<feFlood flood-opacity="0" result="BackgroundImageFix"/>
<feColorMatrix in="SourceAlpha" type="matrix" values="0 0 0 0 0 0 0 0 0 0 0 0 0 0 0 0 0 0 127 0" result="hardAlpha"/>
<feOffset dx="2" dy="2"/>
<feGaussianBlur stdDeviation="1"/>
<feComposite in2="hardAlpha" operator="out"/>
<feColorMatrix type="matrix" values="0 0 0 0 0 0 0 0 0 0 0 0 0 0 0 0 0 0 0.25 0"/>
<feBlend mode="normal" in2="BackgroundImageFix" result="effect1_dropShadow_25_3"/>
<feBlend mode="normal" in="SourceGraphic" in2="effect1_dropShadow_25_3" result="shape"/>
</filter>
<linearGradient id="paint0_linear_25_3" x1="29.25" y1="18.4369" x2="146.75" y2="169.937" gradientUnits="userSpaceOnUse">
<stop stop-color="#232323"/>
<stop offset="1" stop-color="#515151"/>
</linearGradient>
<radialGradient id="paint1_radial_25_3" cx="0" cy="0" r="1" gradientUnits="userSpaceOnUse" gradientTransform="translate(55.75 46.9369) rotate(52.1063) scale(134.321 146.978)">
<stop stop-color="#E5E3E3"/>
<stop offset="1" stop-color="#666666"/>
</radialGradient>
<linearGradient id="paint2_linear_25_3" x1="24.6538" y1="12.5151" x2="39.7667" y2="30.3231" gradientUnits="userSpaceOnUse">
<stop stop-color="#282727"/>
<stop offset="1" stop-color="#3C3C3C"/>
</linearGradient>
<radialGradient id="paint3_radial_25_3" cx="0" cy="0" r="1" gradientUnits="userSpaceOnUse" gradientTransform="translate(51.9025 48) rotate(52.1063) scale(134.321 146.978)">
<stop stop-color="#E5E3E3"/>
<stop offset="1" stop-color="#666666"/>
</radialGradient>
<linearGradient id="paint4_linear_25_3" x1="311.741" y1="0" x2="311.741" y2="209.552" gradientUnits="userSpaceOnUse">
<stop stop-color="#D5D4D4" stop-opacity="0.58"/>
<stop offset="1" stop-color="#666666" stop-opacity="0.07"/>
</linearGradient>
</defs>
</svg>
